<?xml version="1.0" encoding="UTF-8"?>
<!-- Generator: Adobe Illustrator 19.2.0, SVG Export Plug-In . SVG Version: 6.00 Build 0)  -->
<svg version="1.1" id="Layer_1" xmlns="http://www.w3.org/2000/svg" xmlns:xlink="http://www.w3.org/1999/xlink" x="0px" y="0px" viewBox="0 0 960 960" style="enable-background:new 0 0 960 960;" xml:space="preserve"><link xmlns="" type="text/css" id="dark-mode" rel="stylesheet" href=""/><style xmlns="" type="text/css" id="dark-mode-custom-style"/>
<style type="text/css">
	.st0{fill:#F2F2F2;}
	.st1{fill:#CCCCCC;}
	.st2{fill:#999999;}
	.st3{fill:#F15A24;}
</style>
<g>
	<path class="st0" d="M703.7,736.5v-574H159.9v581.9c0,29.4,23.8,53.2,53.2,53.2h490.7h31.6v-61h-31.7V736.5z"/>
	<path class="st1" d="M751.7,797.2L751.7,797.2c-26.8,0-48.5-21.7-48.5-48.5V414.4h96.9v334.3C800.1,775.5,778.4,797.2,751.7,797.2z   "/>
	<rect x="216.4" y="309.1" class="st2" width="437.9" height="133.1"/>
	<rect x="216.4" y="255.5" class="st3" width="437.9" height="27.6"/>
	<rect x="216.4" y="483.3" class="st1" width="437.9" height="26.8"/>
	<rect x="216.4" y="544.9" class="st1" width="437.9" height="26.8"/>
	<rect x="216.4" y="606.6" class="st1" width="249.8" height="26.8"/>
	<rect x="216.4" y="668.3" class="st1" width="249.8" height="26.8"/>
	<rect x="498.6" y="606.6" class="st3" width="155.8" height="88.5"/>
</g>
</svg>